<?xml version="1.0" encoding="UTF-8"?>
<svg width="80px" height="36px" viewBox="0 0 80 36" version="1.1" xmlns="http://www.w3.org/2000/svg" xmlns:xlink="http://www.w3.org/1999/xlink">
    <!-- Generator: Sketch 55 (78076) - https://sketchapp.com -->
    <title>photo_logo</title>
    <desc>Created with Sketch.</desc>
    <g id="RP-455-Policy-details-优化" stroke="none" stroke-width="1" fill="none" fill-rule="evenodd">
        <g id="offline-预览" transform="translate(-200.000000, -1709.000000)" fill="#909090" fill-rule="nonzero">
            <path d="M217.078652,1713.375 L204.407869,1713.375 L204.407869,1719.50802 L215.17495,1719.50802 L215.17495,1723.88871 L204.407869,1723.88871 L204.407869,1734.89246 L200,1734.89246 L200,1709 L217.52809,1709 L217.52809,1709.44642 L221.539163,1709.44642 L221.539163,1723.75714 C221.539163,1726.03945 221.632308,1727.57443 221.80702,1728.37328 C222.086542,1729.52014 222.680493,1730.4274 223.588874,1731.0779 C224.497255,1731.73984 225.627007,1732.065 226.966292,1732.065 C228.305664,1732.065 229.423665,1731.73984 230.332046,1731.0779 C231.252091,1730.4274 231.846042,1729.52014 232.125565,1728.37328 C232.300277,1727.57443 232.393421,1726.03945 232.393421,1723.75714 L232.393421,1709.44642 L236.853933,1709.44642 L236.853933,1724.01783 C238.172893,1728.38618 241.653157,1732.21392 246.575265,1732.21392 C249.244125,1732.21392 250.480363,1731.87873 251.612625,1731.00031 C252.60628,1730.2202 253.056818,1729.23206 253.056818,1728.13404 C253.056818,1727.15739 252.629338,1726.38299 251.785949,1725.8224 C251.185145,1725.43529 249.706322,1724.94407 247.337735,1724.34884 C244.160476,1723.54549 241.953727,1722.84633 240.717488,1722.2568 C239.492822,1721.67324 238.556942,1720.8641 237.921507,1719.82396 C237.285987,1718.78373 236.974055,1717.63949 236.974055,1716.38553 C236.974055,1715.2412 237.228212,1714.18369 237.748184,1713.21284 C238.279641,1712.23619 238.984422,1711.42714 239.885586,1710.78569 C240.567222,1710.28869 241.480044,1709.86105 242.646936,1709.52016 C243.813828,1709.17339 245.073211,1709 246.401941,1709 C248.412222,1709 250.180004,1709.28898 251.693457,1709.86684 C253.218656,1710.4505 254.339259,1711.23069 255.067185,1712.21891 C255.783538,1713.21284 256.291851,1714.53625 256.557666,1716.18899 L252.317406,1716.76694 C252.121025,1715.44931 251.566422,1714.42066 250.630543,1713.6809 C249.706322,1712.94122 248.40065,1712.57139 246.713872,1712.57139 C244.72665,1712.57139 243.293943,1712.90079 242.450554,1713.55961 C241.595593,1714.21842 241.168027,1714.99274 241.168027,1715.87695 C241.168027,1716.43754 241.341351,1716.94603 241.69957,1717.39682 C242.046132,1717.86488 242.612306,1718.25208 243.363203,1718.55834 C243.802256,1718.71436 245.073211,1719.0842 247.199041,1719.66794 C250.272323,1720.48848 252.409811,1721.15887 253.622992,1721.67894 C254.836086,1722.2048 255.795111,1722.96192 256.48832,1723.96164 C256.553767,1724.05604 256.616125,1724.15256 256.675394,1724.25119 C256.644613,1723.7904 256.629214,1723.31672 256.629214,1722.83015 C256.629214,1718.58991 257.732767,1715.2982 259.928445,1712.96091 C262.124123,1710.61791 264.963562,1709.4464 268.46979,1709.4464 C271.860963,1709.4464 274.62006,1710.59501 276.769682,1712.88659 C278.919389,1715.18389 280,1718.407 280,1722.56728 C280,1722.82442 279.988486,1723.2016 279.977058,1723.71025 L261.066454,1723.71025 C261.227395,1726.47614 262.020668,1728.59626 263.434673,1730.07061 C264.848592,1731.53932 266.619021,1732.2765 268.734186,1732.2765 C270.309131,1732.2765 271.654052,1731.86507 272.769205,1731.04212 C273.884272,1730.21917 274.757972,1728.90483 275.413161,1727.09901 L279.850574,1727.64764 C279.149328,1730.2249 277.861807,1732.22507 275.964981,1733.65372 C274.068241,1735.07665 271.654052,1735.78529 268.711157,1735.78529 C264.998018,1735.78529 262.055124,1734.65377 259.893989,1732.38508 C258.836217,1731.27781 258.034584,1729.95517 257.490397,1728.4165 C257.369169,1729.59351 256.955966,1730.71095 256.257221,1731.76892 C255.413746,1733.04612 254.177508,1734.01119 252.60628,1734.73938 C250.330097,1735.78531 248.666465,1735.78531 246.656098,1735.78531 C241.245037,1735.78531 237.819852,1733.34022 236.171719,1730.96174 C235.920865,1731.63143 235.601734,1732.23017 235.211796,1732.75551 C234.559607,1733.63991 233.558082,1734.37025 232.207132,1734.95235 C230.856095,1735.53998 228.992761,1735.78531 226.966292,1735.78531 C224.939824,1735.78531 223.064825,1735.53998 221.72554,1734.95235 C220.374503,1734.37025 219.372977,1733.63991 218.720788,1732.75551 C218.0686,1731.87674 217.614366,1730.79257 217.346509,1729.51451 C217.160132,1728.65281 217.078652,1727.29482 217.078652,1725.43467 L217.078652,1713.375 Z M259.325712,1740.75142 C259.614957,1741.03811 259.703894,1741.42487 259.668656,1741.84372 C260.091251,1741.80859 260.481062,1741.89658 260.77047,1742.18343 C261.378565,1742.78616 261.323754,1743.80539 260.666077,1744.45726 C260.35098,1744.76958 259.723703,1744.99219 259.275234,1744.96897 C258.553384,1745.06127 256.940379,1744.93611 256.748176,1744.7456 C256.558229,1744.55733 256.426546,1742.92807 256.51478,1742.26509 C256.493351,1741.78682 256.719097,1741.16606 257.033031,1740.85489 C257.690357,1740.20337 258.718103,1740.14918 259.325712,1740.75142 Z M260.334077,1744.12681 C260.815203,1743.64993 260.85414,1742.92589 260.43847,1742.51389 C260.219472,1742.29682 259.843136,1742.2632 259.438179,1742.34992 L259.08181,1742.42625 L259.158961,1742.07235 C259.246314,1741.67165 259.21233,1741.29857 258.993712,1741.08188 C258.577917,1740.66975 257.846297,1740.70833 257.365031,1741.18535 C257.147692,1741.40077 256.968598,1741.89325 256.982687,1742.28412 C256.911492,1742.84083 257.035125,1744.37049 257.080176,1744.41515 C257.127482,1744.46204 258.640483,1744.57944 259.255641,1744.50427 C259.617214,1744.52019 260.115647,1744.34331 260.334077,1744.12681 Z M202.697998,1742.07575 L202.697998,1741.76862 C202.697998,1741.29719 202.439115,1741.09005 201.87101,1741.09005 C201.346052,1741.09005 201.087169,1741.29005 200.964919,1741.61862 C200.91458,1741.75433 200.806712,1741.80433 200.684462,1741.80433 C200.626932,1741.80433 200.569403,1741.79719 200.519064,1741.77576 C200.382432,1741.7329 200.281755,1741.6329 200.281755,1741.50433 C200.281755,1741.47576 200.288946,1741.44719 200.296137,1741.41862 C200.368049,1741.1972 200.55502,1740.99006 200.720418,1740.86149 C200.97211,1740.66863 201.295714,1740.54721 201.878201,1740.54721 C202.841822,1740.54721 203.316441,1740.92577 203.316441,1741.76862 L203.316441,1743.71859 C203.316441,1743.96858 203.352397,1744.21144 203.395544,1744.34715 C203.402735,1744.36858 203.409927,1744.39715 203.409927,1744.41858 C203.409927,1744.53286 203.302059,1744.63286 203.122279,1744.64714 L203.057558,1744.64714 C202.913734,1744.64714 202.784292,1744.60429 202.755527,1744.47572 C202.733954,1744.39 202.719571,1744.26143 202.712381,1744.11858 C202.439115,1744.42572 202.057981,1744.70428 201.346052,1744.70428 C200.55502,1744.70428 200.07321,1744.26143 200.07321,1743.52573 C200.07321,1742.85431 200.475917,1742.42575 201.159081,1742.24004 C201.554597,1742.1329 201.92854,1742.09004 202.697998,1742.07575 Z M202.697998,1743.0686 L202.697998,1742.59003 C201.856627,1742.61146 201.461111,1742.68289 201.173463,1742.82574 C200.885815,1742.9686 200.7348,1743.19002 200.7348,1743.53287 C200.7348,1743.9043 201.022448,1744.15429 201.45392,1744.15429 C201.906966,1744.15429 202.280908,1743.93287 202.511027,1743.64716 C202.64766,1743.47573 202.697998,1743.34002 202.697998,1743.0686 Z M205.844148,1742.8686 L205.43425,1742.79003 C204.549732,1742.6186 204.182981,1742.31146 204.182981,1741.6329 C204.182981,1740.98291 204.743894,1740.54006 205.671559,1740.54006 C206.469783,1740.54006 206.980358,1740.87577 207.160138,1741.39719 C207.167329,1741.42576 207.17452,1741.45433 207.17452,1741.48291 C207.17452,1741.61862 207.05227,1741.71147 206.922828,1741.74719 C206.886872,1741.75433 206.843725,1741.76147 206.807769,1741.76147 C206.678328,1741.76147 206.548886,1741.70433 206.51293,1741.56862 C206.419444,1741.24719 206.103031,1741.08291 205.693133,1741.08291 C205.110646,1741.08291 204.83738,1741.31862 204.83738,1741.61862 C204.83738,1741.94718 204.974013,1742.09004 205.578074,1742.21861 L206.023928,1742.31146 C206.958784,1742.50432 207.332726,1742.77574 207.332726,1743.52573 C207.332726,1744.21144 206.743048,1744.71857 205.73628,1744.71857 C204.815806,1744.71857 204.276467,1744.35429 204.089495,1743.71859 C204.082304,1743.68287 204.075113,1743.6543 204.075113,1743.62573 C204.075113,1743.48287 204.197363,1743.38288 204.333996,1743.35431 C204.369952,1743.34716 204.405908,1743.34002 204.434673,1743.34002 C204.571306,1743.34002 204.700747,1743.39716 204.743894,1743.53287 C204.873336,1743.94715 205.168175,1744.15429 205.73628,1744.15429 C206.311576,1744.15429 206.685518,1743.9043 206.685518,1743.54002 C206.685518,1743.19002 206.498547,1742.99717 205.844148,1742.8686 Z M208.033869,1743.31145 L208.033869,1740.89006 C208.033869,1740.6972 208.170501,1740.60435 208.364664,1740.60435 C208.558826,1740.60435 208.695459,1740.6972 208.695459,1740.89006 L208.695459,1743.17574 C208.695459,1743.79001 208.947151,1744.13287 209.4793,1744.13287 C209.860434,1744.13287 210.169655,1743.9543 210.414156,1743.61859 C210.586745,1743.37573 210.658657,1743.15431 210.658657,1742.87574 L210.658657,1740.89006 C210.658657,1740.6972 210.79529,1740.60435 210.989452,1740.60435 C211.176423,1740.60435 211.313056,1740.6972 211.313056,1740.89006 L211.313056,1744.36143 C211.313056,1744.55429 211.183615,1744.64714 210.996643,1744.64714 C210.802481,1744.64714 210.665848,1744.56143 210.665848,1744.38286 L210.665848,1744.18286 C210.665848,1744.10429 210.687422,1743.96144 210.708995,1743.84716 C210.486068,1744.34715 210.068978,1744.71143 209.349858,1744.71143 C208.501297,1744.71143 208.033869,1744.18286 208.033869,1743.31145 Z M212.359376,1744.36143 L212.359376,1740.88291 C212.359376,1740.6972 212.496009,1740.60435 212.697362,1740.60435 C212.877142,1740.60435 213.020966,1740.6972 213.020966,1740.88291 L213.020966,1741.04005 C213.020966,1741.14005 212.992201,1741.26148 212.977819,1741.37576 C213.092878,1741.03291 213.459629,1740.59006 214.078073,1740.56863 C214.135602,1740.56149 214.185941,1740.56149 214.236279,1740.56149 C214.344147,1740.56149 214.42325,1740.57578 214.523927,1740.5972 C214.689325,1740.61863 214.754045,1740.71863 214.754045,1740.85434 C214.754045,1740.89006 214.746854,1740.93291 214.739663,1740.97577 C214.710898,1741.12577 214.610222,1741.25434 214.459206,1741.25434 C214.437633,1741.25434 214.416059,1741.25434 214.394485,1741.24719 C214.293808,1741.22577 214.200323,1741.20434 214.049308,1741.20434 C213.740086,1741.21148 213.502777,1741.36862 213.322996,1741.59719 C213.136025,1741.82576 213.028157,1742.09004 213.020966,1742.39003 L213.020966,1744.36143 C213.020966,1744.55429 212.877142,1744.64714 212.697362,1744.64714 C212.496009,1744.64714 212.359376,1744.55429 212.359376,1744.36143 Z M217.706033,1742.07575 L217.706033,1741.76862 C217.706033,1741.29719 217.44715,1741.09005 216.879045,1741.09005 C216.354087,1741.09005 216.095204,1741.29005 215.972954,1741.61862 C215.922616,1741.75433 215.814748,1741.80433 215.692497,1741.80433 C215.634967,1741.80433 215.577438,1741.79719 215.5271,1741.77576 C215.390467,1741.7329 215.28979,1741.6329 215.28979,1741.50433 C215.28979,1741.47576 215.296981,1741.44719 215.304173,1741.41862 C215.376084,1741.1972 215.563056,1740.99006 215.728453,1740.86149 C215.980145,1740.66863 216.303749,1740.54721 216.886237,1740.54721 C217.849857,1740.54721 218.324476,1740.92577 218.324476,1741.76862 L218.324476,1743.71859 C218.324476,1743.96858 218.360432,1744.21144 218.40358,1744.34715 C218.410771,1744.36858 218.417962,1744.39715 218.417962,1744.41858 C218.417962,1744.53286 218.310094,1744.63286 218.130314,1744.64714 L218.065593,1744.64714 C217.921769,1744.64714 217.792328,1744.60429 217.763563,1744.47572 C217.741989,1744.39 217.727607,1744.26143 217.720416,1744.11858 C217.44715,1744.42572 217.066016,1744.70428 216.354087,1744.70428 C215.563056,1744.70428 215.081245,1744.26143 215.081245,1743.52573 C215.081245,1742.85431 215.483952,1742.42575 216.167116,1742.24004 C216.562633,1742.1329 216.936575,1742.09004 217.706033,1742.07575 Z M217.706033,1743.0686 L217.706033,1742.59003 C216.864663,1742.61146 216.469147,1742.68289 216.181499,1742.82574 C215.893851,1742.9686 215.742836,1743.19002 215.742836,1743.53287 C215.742836,1743.9043 216.030483,1744.15429 216.461956,1744.15429 C216.915001,1744.15429 217.288943,1743.93287 217.519062,1743.64716 C217.655695,1743.47573 217.706033,1743.34002 217.706033,1743.0686 Z M222.614027,1741.94004 L222.614027,1744.36143 C222.614027,1744.55429 222.470204,1744.64714 222.283232,1744.64714 C222.08907,1744.64714 221.952437,1744.55429 221.952437,1744.36143 L221.952437,1742.07575 C221.952437,1741.46862 221.707936,1741.12577 221.168596,1741.12577 C220.780271,1741.12577 220.456667,1741.29719 220.212167,1741.6329 C220.032387,1741.87576 219.960474,1742.0829 219.960474,1742.36146 L219.960474,1744.36143 C219.960474,1744.55429 219.823842,1744.64714 219.63687,1744.64714 C219.435517,1744.64714 219.306075,1744.55429 219.306075,1744.36143 L219.306075,1740.88291 C219.306075,1740.6972 219.442708,1740.60435 219.644062,1740.60435 C219.831033,1740.60435 219.960474,1740.6972 219.960474,1740.88291 L219.960474,1741.07577 C219.960474,1741.16862 219.938901,1741.24005 219.93171,1741.37576 C220.183402,1740.86863 220.614874,1740.54721 221.298038,1740.54721 C222.153791,1740.54721 222.614027,1741.06148 222.614027,1741.94004 Z M225.077014,1742.8686 L224.667115,1742.79003 C223.782598,1742.6186 223.415846,1742.31146 223.415846,1741.6329 C223.415846,1740.98291 223.97676,1740.54006 224.904425,1740.54006 C225.702648,1740.54006 226.213224,1740.87577 226.393003,1741.39719 C226.400195,1741.42576 226.407386,1741.45433 226.407386,1741.48291 C226.407386,1741.61862 226.285135,1741.71147 226.155694,1741.74719 C226.119738,1741.75433 226.076591,1741.76147 226.040635,1741.76147 C225.911193,1741.76147 225.781751,1741.70433 225.745795,1741.56862 C225.65231,1741.24719 225.335897,1741.08291 224.925998,1741.08291 C224.343511,1741.08291 224.070246,1741.31862 224.070246,1741.61862 C224.070246,1741.94718 224.206879,1742.09004 224.810939,1742.21861 L225.256794,1742.31146 C226.19165,1742.50432 226.565592,1742.77574 226.565592,1743.52573 C226.565592,1744.21144 225.975914,1744.71857 224.969146,1744.71857 C224.048672,1744.71857 223.509332,1744.35429 223.322361,1743.71859 C223.31517,1743.68287 223.307978,1743.6543 223.307978,1743.62573 C223.307978,1743.48287 223.430229,1743.38288 223.566861,1743.35431 C223.602818,1743.34716 223.638774,1743.34002 223.667538,1743.34002 C223.804171,1743.34002 223.933613,1743.39716 223.97676,1743.53287 C224.106202,1743.94715 224.401041,1744.15429 224.969146,1744.15429 C225.544442,1744.15429 225.918384,1743.9043 225.918384,1743.54002 C225.918384,1743.19002 225.731413,1742.99717 225.077014,1742.8686 Z M227.288308,1744.36143 L227.288308,1740.88291 C227.288308,1740.6972 227.410558,1740.60435 227.611912,1740.60435 C227.806074,1740.60435 227.942707,1740.6972 227.942707,1740.88291 L227.942707,1744.36143 C227.942707,1744.55429 227.806074,1744.64714 227.611912,1744.64714 C227.410558,1744.64714 227.288308,1744.55429 227.288308,1744.36143 Z M227.619103,1738.99009 C227.885177,1738.99009 228.100914,1739.19723 228.100914,1739.46865 C228.100914,1739.74722 227.885177,1739.95436 227.619103,1739.95436 C227.345837,1739.95436 227.130102,1739.74722 227.130102,1739.46865 C227.130102,1739.19723 227.345837,1738.99009 227.619103,1738.99009 Z M229.535558,1743.19716 L229.535558,1744.36143 C229.535558,1744.55429 229.406116,1744.64714 229.211954,1744.64714 C229.0106,1744.64714 228.88835,1744.55429 228.88835,1744.36143 L228.88835,1739.2758 C228.88835,1739.09008 229.017792,1738.99723 229.219145,1738.99723 C229.406116,1738.99723 229.535558,1739.0758 229.535558,1739.26151 L229.535558,1742.43289 L231.290211,1740.6972 C231.354932,1740.63292 231.434035,1740.60435 231.505947,1740.60435 C231.599432,1740.60435 231.685727,1740.64006 231.743257,1740.71149 C231.807977,1740.78292 231.851124,1740.86863 231.851124,1740.9472 C231.851124,1741.01863 231.82236,1741.08291 231.757639,1741.1472 L230.542326,1742.27575 L231.973375,1744.16858 C232.009331,1744.21858 232.023713,1744.26858 232.023713,1744.32572 C232.023713,1744.43286 231.951801,1744.54 231.858316,1744.59714 C231.800786,1744.63286 231.736065,1744.64714 231.664153,1744.64714 C231.570668,1744.64714 231.477182,1744.61143 231.419653,1744.53286 L230.082089,1742.67574 L229.535558,1743.19716 Z M235.076378,1742.07575 L235.076378,1741.76862 C235.076378,1741.29719 234.817495,1741.09005 234.24939,1741.09005 C233.724432,1741.09005 233.465549,1741.29005 233.343299,1741.61862 C233.29296,1741.75433 233.185092,1741.80433 233.062842,1741.80433 C233.005312,1741.80433 232.947783,1741.79719 232.897444,1741.77576 C232.760811,1741.7329 232.660135,1741.6329 232.660135,1741.50433 C232.660135,1741.47576 232.667326,1741.44719 232.674517,1741.41862 C232.746429,1741.1972 232.9334,1740.99006 233.098798,1740.86149 C233.35049,1740.66863 233.674094,1740.54721 234.256581,1740.54721 C235.220202,1740.54721 235.694821,1740.92577 235.694821,1741.76862 L235.694821,1743.71859 C235.694821,1743.96858 235.730777,1744.21144 235.773924,1744.34715 C235.781116,1744.36858 235.788307,1744.39715 235.788307,1744.41858 C235.788307,1744.53286 235.680439,1744.63286 235.500659,1744.64714 L235.435938,1744.64714 C235.292114,1744.64714 235.162673,1744.60429 235.133908,1744.47572 C235.112334,1744.39 235.097952,1744.26143 235.09076,1744.11858 C234.817495,1744.42572 234.436361,1744.70428 233.724432,1744.70428 C232.9334,1744.70428 232.45159,1744.26143 232.45159,1743.52573 C232.45159,1742.85431 232.854297,1742.42575 233.537461,1742.24004 C233.932977,1742.1329 234.306919,1742.09004 235.076378,1742.07575 Z M235.076378,1743.0686 L235.076378,1742.59003 C234.235007,1742.61146 233.839492,1742.68289 233.551843,1742.82574 C233.264195,1742.9686 233.11318,1743.19002 233.11318,1743.53287 C233.11318,1743.9043 233.400828,1744.15429 233.8323,1744.15429 C234.285346,1744.15429 234.659288,1743.93287 234.889407,1743.64716 C235.02604,1743.47573 235.076378,1743.34002 235.076378,1743.0686 Z M239.984372,1741.94004 L239.984372,1744.36143 C239.984372,1744.55429 239.840548,1744.64714 239.653577,1744.64714 C239.459414,1744.64714 239.322782,1744.55429 239.322782,1744.36143 L239.322782,1742.07575 C239.322782,1741.46862 239.078281,1741.12577 238.538941,1741.12577 C238.150616,1741.12577 237.827012,1741.29719 237.582511,1741.6329 C237.402731,1741.87576 237.330819,1742.0829 237.330819,1742.36146 L237.330819,1744.36143 C237.330819,1744.55429 237.194186,1744.64714 237.007215,1744.64714 C236.805861,1744.64714 236.67642,1744.55429 236.67642,1744.36143 L236.67642,1740.88291 C236.67642,1740.6972 236.813053,1740.60435 237.014406,1740.60435 C237.201378,1740.60435 237.330819,1740.6972 237.330819,1740.88291 L237.330819,1741.07577 C237.330819,1741.16862 237.309246,1741.24005 237.302054,1741.37576 C237.553746,1740.86863 237.985219,1740.54721 238.668383,1740.54721 C239.524135,1740.54721 239.984372,1741.06148 239.984372,1741.94004 Z M243.79564,1742.64003 C243.79564,1741.41862 244.428466,1740.54006 245.607822,1740.54006 C246.557061,1740.54006 246.945386,1741.06148 247.125165,1741.51148 C247.139548,1741.54719 247.146739,1741.59005 247.146739,1741.61862 C247.146739,1741.75433 247.038871,1741.84004 246.931003,1741.8829 C246.880665,1741.89718 246.823135,1741.90433 246.772797,1741.90433 C246.664929,1741.90433 246.571443,1741.86147 246.521105,1741.74004 C246.384472,1741.37576 246.168736,1741.0972 245.622205,1741.0972 C244.87432,1741.0972 244.464421,1741.72576 244.464421,1742.63289 C244.464421,1743.56859 244.867129,1744.16144 245.629396,1744.16144 C246.190309,1744.16144 246.413237,1743.89001 246.54987,1743.5043 C246.600208,1743.36859 246.700885,1743.31145 246.815944,1743.31145 C246.866282,1743.31145 246.916621,1743.31859 246.966959,1743.34002 C247.096401,1743.36859 247.197078,1743.4543 247.197078,1743.58287 C247.197078,1743.62573 247.189886,1743.66144 247.168313,1743.71144 C246.97415,1744.20429 246.593017,1744.71857 245.615014,1744.71857 C244.450039,1744.71857 243.79564,1743.86858 243.79564,1742.64003 Z M247.876646,1744.36143 L247.876646,1740.88291 C247.876646,1740.6972 247.998897,1740.60435 248.20025,1740.60435 C248.394413,1740.60435 248.531045,1740.6972 248.531045,1740.88291 L248.531045,1744.36143 C248.531045,1744.55429 248.394413,1744.64714 248.20025,1744.64714 C247.998897,1744.64714 247.876646,1744.55429 247.876646,1744.36143 Z M248.207441,1738.99009 C248.473516,1738.99009 248.689252,1739.19723 248.689252,1739.46865 C248.689252,1739.74722 248.473516,1739.95436 248.207441,1739.95436 C247.934176,1739.95436 247.71844,1739.74722 247.71844,1739.46865 C247.71844,1739.19723 247.934176,1738.99009 248.207441,1738.99009 Z M252.777449,1741.94004 L252.777449,1744.36143 C252.777449,1744.55429 252.633625,1744.64714 252.446654,1744.64714 C252.252492,1744.64714 252.115859,1744.55429 252.115859,1744.36143 L252.115859,1742.07575 C252.115859,1741.46862 251.871358,1741.12577 251.332018,1741.12577 C250.943693,1741.12577 250.620089,1741.29719 250.375588,1741.6329 C250.195808,1741.87576 250.123896,1742.0829 250.123896,1742.36146 L250.123896,1744.36143 C250.123896,1744.55429 249.987263,1744.64714 249.800292,1744.64714 C249.598939,1744.64714 249.469497,1744.55429 249.469497,1744.36143 L249.469497,1740.88291 C249.469497,1740.6972 249.60613,1740.60435 249.807483,1740.60435 C249.994455,1740.60435 250.123896,1740.6972 250.123896,1740.88291 L250.123896,1741.07577 C250.123896,1741.16862 250.102322,1741.24005 250.095131,1741.37576 C250.346824,1740.86863 250.778295,1740.54721 251.461459,1740.54721 C252.317212,1740.54721 252.777449,1741.06148 252.777449,1741.94004 Z M254.118608,1740.6472 L254.118608,1739.78293 C254.118608,1739.59722 254.240858,1739.49722 254.442212,1739.49722 C254.629183,1739.49722 254.765816,1739.59722 254.765816,1739.78293 L254.765816,1740.6472 L255.68629,1740.6472 C255.86607,1740.6472 255.952364,1740.76149 255.952364,1740.93291 C255.952364,1741.0972 255.858879,1741.21148 255.68629,1741.21148 L254.765816,1741.21148 L254.765816,1743.6043 C254.765816,1743.9543 254.916831,1744.10429 255.182906,1744.10429 C255.362686,1744.10429 255.484936,1744.05429 255.607187,1743.98287 C255.650334,1743.96144 255.693481,1743.94715 255.736628,1743.94715 C255.844496,1743.94715 255.930791,1744.02572 255.973938,1744.13287 C255.995511,1744.18286 256.002703,1744.24001 256.002703,1744.29001 C256.002703,1744.39 255.959555,1744.49 255.851687,1744.54714 C255.643143,1744.64714 255.44898,1744.70428 255.139758,1744.70428 C254.55008,1744.70428 254.118608,1744.41143 254.118608,1743.66144 L254.118608,1741.21148 L253.557694,1741.21148 C253.385105,1741.21148 253.306002,1741.0972 253.306002,1740.93291 C253.306002,1740.76863 253.385105,1740.6472 253.564886,1740.6472 L254.118608,1740.6472 Z M266.359624,1742.07575 L266.359624,1741.76862 C266.359624,1741.29719 266.100741,1741.09005 265.532636,1741.09005 C265.007678,1741.09005 264.748795,1741.29005 264.626544,1741.61862 C264.576206,1741.75433 264.468338,1741.80433 264.346088,1741.80433 C264.288558,1741.80433 264.231029,1741.79719 264.18069,1741.77576 C264.044057,1741.7329 263.943381,1741.6329 263.943381,1741.50433 C263.943381,1741.47576 263.950572,1741.44719 263.957763,1741.41862 C264.029675,1741.1972 264.216646,1740.99006 264.382044,1740.86149 C264.633736,1740.66863 264.95734,1740.54721 265.539827,1740.54721 C266.503448,1740.54721 266.978067,1740.92577 266.978067,1741.76862 L266.978067,1743.71859 C266.978067,1743.96858 267.014023,1744.21144 267.05717,1744.34715 C267.064362,1744.36858 267.071553,1744.39715 267.071553,1744.41858 C267.071553,1744.53286 266.963685,1744.63286 266.783905,1744.64714 L266.719184,1744.64714 C266.57536,1744.64714 266.445918,1744.60429 266.417153,1744.47572 C266.39558,1744.39 266.381197,1744.26143 266.374006,1744.11858 C266.100741,1744.42572 265.719607,1744.70428 265.007678,1744.70428 C264.216646,1744.70428 263.734836,1744.26143 263.734836,1743.52573 C263.734836,1742.85431 264.137543,1742.42575 264.820707,1742.24004 C265.216223,1742.1329 265.590166,1742.09004 266.359624,1742.07575 Z M266.359624,1743.0686 L266.359624,1742.59003 C265.518254,1742.61146 265.122737,1742.68289 264.835089,1742.82574 C264.547441,1742.9686 264.396426,1743.19002 264.396426,1743.53287 C264.396426,1743.9043 264.684074,1744.15429 265.115546,1744.15429 C265.568592,1744.15429 265.942534,1743.93287 266.172653,1743.64716 C266.309285,1743.47573 266.359624,1743.34002 266.359624,1743.0686 Z M271.267618,1741.94004 L271.267618,1744.36143 C271.267618,1744.55429 271.123794,1744.64714 270.936823,1744.64714 C270.742661,1744.64714 270.606028,1744.55429 270.606028,1744.36143 L270.606028,1742.07575 C270.606028,1741.46862 270.361527,1741.12577 269.822187,1741.12577 C269.433862,1741.12577 269.110258,1741.29719 268.865757,1741.6329 C268.685977,1741.87576 268.614065,1742.0829 268.614065,1742.36146 L268.614065,1744.36143 C268.614065,1744.55429 268.477432,1744.64714 268.290461,1744.64714 C268.089108,1744.64714 267.959666,1744.55429 267.959666,1744.36143 L267.959666,1740.88291 C267.959666,1740.6972 268.096299,1740.60435 268.297652,1740.60435 C268.484624,1740.60435 268.614065,1740.6972 268.614065,1740.88291 L268.614065,1741.07577 C268.614065,1741.16862 268.592491,1741.24005 268.585301,1741.37576 C268.836993,1740.86863 269.268464,1740.54721 269.951628,1740.54721 C270.807381,1740.54721 271.267618,1741.06148 271.267618,1741.94004 Z M275.010638,1740.84006 L275.010638,1739.28294 C275.010638,1739.09008 275.147271,1738.99723 275.327051,1738.99723 C275.528405,1738.99723 275.650655,1739.09008 275.650655,1739.28294 L275.650655,1744.36143 C275.650655,1744.55429 275.521213,1744.64714 275.31986,1744.64714 C275.111315,1744.64714 275.010638,1744.53286 275.010638,1744.38286 L275.010638,1744.23286 C275.010638,1744.15429 275.02502,1744.0043 275.032212,1743.9043 C274.787711,1744.40429 274.377812,1744.71143 273.709031,1744.71143 C272.659115,1744.71143 271.997525,1743.89001 271.997525,1742.60432 C271.997525,1741.35434 272.651924,1740.54721 273.716222,1740.54721 C274.385004,1740.54721 274.787711,1740.86149 275.039403,1741.36862 C275.02502,1741.20434 275.010638,1740.9972 275.010638,1740.84006 Z M273.802516,1741.10434 C273.076205,1741.10434 272.659115,1741.70433 272.659115,1742.61146 C272.659115,1743.54716 273.076205,1744.15429 273.802516,1744.15429 C274.557593,1744.15429 275.02502,1743.5043 275.02502,1742.6186 C275.02502,1741.74719 274.593548,1741.10434 273.802516,1741.10434 Z M279.019732,1742.07575 L279.019732,1741.76862 C279.019732,1741.29719 278.760849,1741.09005 278.192744,1741.09005 C277.667787,1741.09005 277.408903,1741.29005 277.286653,1741.61862 C277.236314,1741.75433 277.128447,1741.80433 277.006196,1741.80433 C276.948666,1741.80433 276.891137,1741.79719 276.840799,1741.77576 C276.704166,1741.7329 276.603489,1741.6329 276.603489,1741.50433 C276.603489,1741.47576 276.61068,1741.44719 276.617871,1741.41862 C276.689783,1741.1972 276.876754,1740.99006 277.042152,1740.86149 C277.293844,1740.66863 277.617448,1740.54721 278.199936,1740.54721 C279.163556,1740.54721 279.638175,1740.92577 279.638175,1741.76862 L279.638175,1743.71859 C279.638175,1743.96858 279.674132,1744.21144 279.717279,1744.34715 C279.72447,1744.36858 279.731661,1744.39715 279.731661,1744.41858 C279.731661,1744.53286 279.623793,1744.63286 279.444013,1744.64714 L279.379292,1744.64714 C279.235468,1744.64714 279.106027,1744.60429 279.077262,1744.47572 C279.055688,1744.39 279.041306,1744.26143 279.034115,1744.11858 C278.760849,1744.42572 278.379715,1744.70428 277.667787,1744.70428 C276.876754,1744.70428 276.394944,1744.26143 276.394944,1743.52573 C276.394944,1742.85431 276.797651,1742.42575 277.480815,1742.24004 C277.876332,1742.1329 278.250274,1742.09004 279.019732,1742.07575 Z M279.019732,1743.0686 L279.019732,1742.59003 C278.178362,1742.61146 277.782846,1742.68289 277.495198,1742.82574 C277.20755,1742.9686 277.056535,1743.19002 277.056535,1743.53287 C277.056535,1743.9043 277.344183,1744.15429 277.775655,1744.15429 C278.2287,1744.15429 278.602643,1743.93287 278.832761,1743.64716 C278.969394,1743.47573 279.019732,1743.34002 279.019732,1743.0686 Z M261.573034,1720.16053 L275.505618,1720.16053 C275.324577,1718.07301 274.792704,1716.4989 273.90983,1715.45506 C272.562932,1713.83018 270.820026,1713.01778 268.669524,1713.01778 C266.734156,1713.01778 265.092938,1713.66664 263.768797,1714.95862 C262.444571,1716.25625 261.708815,1717.99398 261.573034,1720.16053 Z" id="photo_logo"></path>
        </g>
    </g>
</svg>